<?xml version="1.0" encoding="utf-8"?>
<!-- Generator: Adobe Illustrator 22.1.0, SVG Export Plug-In . SVG Version: 6.00 Build 0)  -->
<svg version="1.1" id="Layer_1" xmlns="http://www.w3.org/2000/svg" xmlns:xlink="http://www.w3.org/1999/xlink" x="0px" y="0px"
	 viewBox="0 0 501.6 104.6" style="enable-background:new 0 0 501.6 104.6;" xml:space="preserve">
<style type="text/css">
	.st0{fill:#172226;}
	.st1{fill:#FF6600;}
	.st2{fill-rule:evenodd;clip-rule:evenodd;fill:#FF6600;}
</style>
<title>logo-black</title>
<path class="st0" d="M442.7,68.5c-1.5,0-2.9-0.9-3.5-2.3l-17.3-41.4c-0.3-0.6-1.2-0.6-1.4,0l-15.9,39c-1.2,2.9-3.6,4.8-6.3,4.8
	h-26.7c-5.7,0-10.3-4.6-10.3-10.3V19.6c0-2,1.6-3.8,3.6-3.9c2.2-0.1,4,1.6,4,3.8v38.7c0,1.5,1.2,2.7,2.7,2.7h24.9
	c0.6,0,1.2-0.4,1.4-1l16.2-39.9c1.1-2.9,3.9-4.7,7-4.7c3,0,5.8,1.8,7,4.6l18,43.3c0.8,1.9-0.1,4.2-2,5
	C443.7,68.4,443.2,68.5,442.7,68.5z"/>
<path class="st1" d="M265.3,68.5c-2.1,0-3.8-1.7-3.8-3.8V54.3c0,0,1.4,1.6,3.8,1.6c2.4,0,3.7-1.7,3.7-1.7v10.5
	C269.1,66.8,267.4,68.5,265.3,68.5z"/>
<path class="st1" d="M261.8,35.5V19.7c0-1.6,1-3,2.5-3.6c0.4-0.1,0.8-0.2,1.3-0.2c1.1,0,2.2,0.5,2.9,1.4l7.6,9.3l-4.8,6.1l-2-2.4
	v4.9l-3.9,4.8L261.8,35.5z"/>
<path class="st1" d="M289.9,68.5c-2.1,0-3.8-1.7-3.8-3.8V30.4l-17.7,21.8c-0.7,0.9-1.8,1.4-2.9,1.4c-1.1,0-2.2-0.5-2.9-1.4
	l-17.8-21.9v34.3c0,2.1-1.7,3.8-3.8,3.8c-2.1,0-3.8-1.7-3.8-3.8v-45c0-1.6,1-3,2.5-3.6c0.4-0.1,0.8-0.2,1.3-0.2
	c1.1,0,2.2,0.5,2.9,1.4l21.6,26.5L287,17.4c0.7-0.9,1.8-1.4,2.9-1.4c0.4,0,0.9,0.1,1.3,0.2c1.5,0.5,2.5,2,2.5,3.6v45
	C293.7,66.8,292,68.5,289.9,68.5z"/>
<path class="st0" d="M459.9,68.5c-4.3,0-7.7-3.5-7.7-7.7V23.5c0-4.3,3.5-7.7,7.7-7.7h34.1c4.3,0,7.7,3.5,7.7,7.7v13.4
	c0,2-0.9,4.2-2.5,5.3c1.5,1.1,2.5,3.3,2.5,5.3v13.4c0,4.3-3.5,7.7-7.7,7.7H459.9z M461.6,23.3c-1.1,0-1.9,0.9-1.9,1.9V59
	c0,1.1,0.9,1.9,1.9,1.9h30.6c1.1,0,1.9-0.9,1.9-1.9V47.8c0-1.1-0.9-1.9-1.9-1.9h-22c-2.1,0-3.8-1.7-3.8-3.8c0-2.1,1.7-3.8,3.8-3.8
	l22,0c1.1,0,1.9-0.9,1.9-1.9l0-11.2c0-1.1-0.9-1.9-1.9-1.9H461.6z"/>
<path class="st0" d="M137,68.5c-5.6,0-10.1-4.5-10.1-10.1V25.9c0-5.6,4.5-10.1,10.1-10.1h35.8c2.1,0,3.8,1.7,3.8,3.8
	c0,2.1-1.7,3.8-3.8,3.8H137c-1.4,0-2.6,1.2-2.6,2.6v32.5c0,1.4,1.2,2.6,2.6,2.6h29.4c1.4,0,2.6-1.2,2.6-2.6V46.3
	c0-1.4-1.2-2.6-2.6-2.6h-12.9c-2.1,0-3.8-1.7-3.8-3.8c0-2.1,1.7-3.8,3.8-3.8h12.9c5.6,0,10.1,4.5,10.1,10.1v12.1
	c0,5.6-4.5,10.1-10.1,10.1H137z"/>
<path class="st0" d="M185.7,68.4c-0.5,0-1-0.1-1.4-0.3c-1.9-0.8-2.8-3-2.1-4.9l17.4-43c1.1-2.9,3.9-4.7,6.9-4.7c3,0,5.7,1.8,6.9,4.6
	l17.9,43.1c0.8,1.9-0.1,4.1-2,4.9c-0.5,0.2-0.9,0.3-1.4,0.3c-1.5,0-2.9-0.9-3.5-2.3l-17.1-41.2c-0.3-0.6-1.2-0.6-1.4,0l-16.7,41.2
	C188.6,67.5,187.3,68.4,185.7,68.4z"/>
<path class="st1" d="M305.2,68.4c-0.5,0-1-0.1-1.4-0.3c-1.9-0.8-2.8-3-2.1-4.9l17.4-43c1.1-2.9,3.9-4.7,6.9-4.7c3,0,5.7,1.8,6.9,4.6
	l17.9,43.1c0.8,1.9-0.1,4.1-2,4.9c-0.5,0.2-0.9,0.3-1.4,0.3c-1.5,0-2.9-0.9-3.5-2.3l-17.1-41.2c-0.3-0.6-1.2-0.6-1.4,0l-16.7,41.2
	C308.1,67.5,306.8,68.4,305.2,68.4z"/>
<path class="st2" d="M37.7,103.2c-0.1,0-0.2-0.1-0.4-0.1c-0.8-0.2-1.6-0.5-2.4-0.8C7.6,92.4-6.6,62.2,3.3,34.9
	c9.9-27.3,40-41.5,67.3-31.6s41.5,40.1,31.6,67.4c-0.5,1.3-1,2.6-1.6,3.9c-7-19.5-20.7-36.4-39.4-47.1c-4.3-2.5-8.9-6.2-12.1-10
	l-5,10.6L22.3,15.9l17.4,21.2l-20,41.1l3.8,2.9l18.9-12.3c7.4-5,17.2-3.1,21.1,4.6c2.6,5.1,3.1,11.1,1,16.9
	c-3.7,10.3-14.4,16-24.8,13.6C39.1,103.6,38.4,103.4,37.7,103.2L37.7,103.2z"/>
<g>
	<g>
		<path class="st0" d="M237.8,82.5c0-0.9,0.7-1.7,1.7-1.7h0.4c0.8,0,1.3,0.4,1.8,1l9.6,12.5V82.4c0-0.9,0.7-1.7,1.7-1.7
			c0.9,0,1.7,0.7,1.7,1.7v16.2c0,0.9-0.7,1.7-1.7,1.7h-0.1c-0.8,0-1.3-0.4-1.8-1l-9.9-12.8v12.2c0,0.9-0.7,1.7-1.7,1.7
			c-0.9,0-1.7-0.7-1.7-1.7V82.5z"/>
		<path class="st0" d="M259.5,98.5V82.6c0-1,0.7-1.7,1.7-1.7h11.2c0.8,0,1.5,0.7,1.5,1.5c0,0.9-0.7,1.5-1.5,1.5h-9.5v5h8.3
			c0.8,0,1.5,0.7,1.5,1.5c0,0.8-0.7,1.5-1.5,1.5h-8.3v5.2h9.7c0.8,0,1.5,0.7,1.5,1.5c0,0.9-0.7,1.5-1.5,1.5h-11.4
			C260.3,100.2,259.5,99.4,259.5,98.5z"/>
		<path class="st0" d="M276.8,83.1c-0.1-0.2-0.1-0.4-0.1-0.7c0-0.9,0.8-1.7,1.7-1.7c0.8,0,1.5,0.5,1.7,1.2l4.4,13.3l4.4-13.2
			c0.3-0.8,0.9-1.4,1.7-1.4h0.2c0.9,0,1.5,0.6,1.7,1.4l4.4,13.2l4.4-13.3c0.2-0.7,0.8-1.2,1.7-1.2c0.9,0,1.7,0.7,1.7,1.6
			c0,0.2-0.1,0.5-0.2,0.7l-5.7,16c-0.3,0.9-0.9,1.4-1.8,1.4h-0.3c-0.8,0-1.4-0.5-1.7-1.4l-4.3-12.6l-4.3,12.6
			c-0.3,0.9-0.9,1.4-1.8,1.4h-0.3c-0.8,0-1.4-0.5-1.8-1.4L276.8,83.1z"/>
		<path class="st0" d="M322,92.7l-6.6-9.1c-0.2-0.3-0.4-0.7-0.4-1.2c0-0.9,0.7-1.6,1.7-1.6c0.7,0,1.2,0.4,1.7,1l5.4,7.7l5.5-7.8
			c0.4-0.6,0.9-1,1.6-1c1,0,1.7,0.7,1.7,1.7c0,0.5-0.2,0.9-0.5,1.2l-6.6,9v6c0,0.9-0.7,1.7-1.7,1.7c-0.9,0-1.7-0.7-1.7-1.7V92.7z"/>
		<path class="st0" d="M333.7,90.6L333.7,90.6c0-5.5,4.2-10,10.1-10c5.9,0,10.1,4.5,10.1,9.9v0.1c0,5.4-4.2,10-10.1,10
			C337.8,100.5,333.7,96,333.7,90.6z M350.3,90.6L350.3,90.6c0-3.8-2.7-6.9-6.6-6.9c-3.8,0-6.5,3.1-6.5,6.8v0.1
			c0,3.7,2.7,6.8,6.6,6.8C347.7,97.4,350.3,94.3,350.3,90.6z"/>
		<path class="st0" d="M358,82.6c0-1,0.7-1.7,1.7-1.7h6.9c2.4,0,4.3,0.7,5.6,1.9c1,1,1.6,2.5,1.6,4.2V87c0,3.1-1.8,5-4.4,5.8
			l3.7,4.7c0.3,0.4,0.6,0.8,0.6,1.3c0,0.9-0.8,1.6-1.6,1.6c-0.8,0-1.3-0.4-1.7-0.9l-4.7-6h-4.3v5.2c0,0.9-0.7,1.7-1.7,1.7
			c-1,0-1.7-0.7-1.7-1.7V82.6z M366.3,90.5c2.4,0,4-1.3,4-3.2v-0.1c0-2.1-1.5-3.2-4-3.2h-4.9v6.5H366.3z"/>
		<path class="st0" d="M377.9,82.4c0-0.9,0.7-1.7,1.7-1.7c0.9,0,1.7,0.7,1.7,1.7v8.2l9.2-9.2c0.4-0.4,0.8-0.6,1.4-0.6
			c0.9,0,1.6,0.7,1.6,1.6c0,0.5-0.2,0.9-0.6,1.3l-6,5.8l6.5,8.1c0.3,0.4,0.5,0.7,0.5,1.2c0,0.9-0.7,1.7-1.7,1.7
			c-0.7,0-1.1-0.3-1.4-0.8l-6.2-7.9l-3.1,3v4c0,0.9-0.7,1.7-1.7,1.7c-1,0-1.7-0.7-1.7-1.7V82.4z"/>
	</g>
</g>
</svg>
